<?xml version="1.0" encoding="iso-8859-1"?>
<!-- Generator: Adobe Illustrator 19.0.0, SVG Export Plug-In . SVG Version: 6.00 Build 0)  -->
<svg version="1.1" id="Capa_1" xmlns="http://www.w3.org/2000/svg" xmlns:xlink="http://www.w3.org/1999/xlink" x="0px" y="0px"
	 viewBox="0 0 512 512" style="enable-background:new 0 0 512 512;" xml:space="preserve">
<path style="fill:#F7BB8F;" d="M158.897,114.759h-8.828c-14.627,0-26.483,11.855-26.483,26.483l0,0
	c0,14.627,11.855,26.483,26.483,26.483h8.828"/>
<rect x="211.862" y="247.172" style="fill:#FEC9A3;" width="88.276" height="70.621"/>
<path style="fill:#F7BB8F;" d="M211.862,247.172v33.457c27.701,14.239,60.575,14.239,88.276,0v-33.457H211.862z"/>
<path style="fill:#FEC9A3;" d="M256,0L256,0c53.628,0,97.103,43.476,97.103,97.103v79.448c0,53.628-43.476,97.103-97.103,97.103l0,0
	c-53.628,0-97.103-43.476-97.103-97.103V97.103C158.897,43.476,202.372,0,256,0z"/>
<path style="fill:#F7BB8F;" d="M353.103,167.724h8.828c14.627,0,26.483-11.855,26.483-26.483l0,0
	c0-14.627-11.855-26.483-26.483-26.483h-8.828"/>
<g>
	<circle style="fill:#875339;" cx="203.034" cy="141.241" r="17.655"/>
	<circle style="fill:#875339;" cx="308.965" cy="141.241" r="17.655"/>
</g>
<g>
	<path style="fill:#F0A789;" d="M264.828,194.207h-26.483c-2.781,0-5.394-1.306-7.062-3.531c-1.642-2.198-2.163-5.041-1.412-7.68
		l17.655-61.793l16.949,4.767l-14.389,50.582h14.742V194.207z"/>
	<path style="fill:#F0A789;" d="M248.673,229.517h-10.328v-17.655h10.328c13.656,0.026,26.748-5.411,36.37-15.095l12.535,12.535
		C284.628,222.305,267.017,229.579,248.673,229.517z"/>
</g>
<path style="fill:#6B402A;" d="M194.207,61.793V22.157c-22.369,18.458-35.319,45.948-35.31,74.946v17.655
	C180.171,105.719,194.039,84.904,194.207,61.793z"/>
<path style="fill:#875339;" d="M158.897,0c0,34.127,27.666,61.793,61.793,61.793h97.103c1.501,22.687,14.945,42.858,35.31,52.966
	V88.276C353.103,39.521,313.582,0,264.828,0H158.897z"/>
<path style="fill:#DBDBDB;" d="M361.931,308.966H150.069c-39,0-70.621,31.62-70.621,70.621V512h353.103V379.586
	C432.552,340.586,400.931,308.966,361.931,308.966z"/>
<path style="fill:#D1D1D1;" d="M79.448,482.957V512h353.103V379.586c0.018-13.948-4.105-27.586-11.829-39.194
	C331.564,447.117,168.43,475.542,79.448,482.957z"/>
<polygon style="fill:#4398D1;" points="282.483,308.966 229.517,308.966 247.172,344.276 229.517,476.69 256,503.172 
	282.483,476.69 264.828,344.276 "/>
<g>
	<rect x="132.414" y="388.414" style="fill:#BDBDBD;" width="17.655" height="123.586"/>
	<rect x="361.931" y="388.414" style="fill:#BDBDBD;" width="17.655" height="123.586"/>
</g>
<path style="fill:#3E8CC7;" d="M229.517,476.69L256,503.172l26.483-26.483l-8.033-60.381c-12.703,7.274-25.882,13.674-39.459,19.156
	L229.517,476.69z"/>
<g>
</g>
<g>
</g>
<g>
</g>
<g>
</g>
<g>
</g>
<g>
</g>
<g>
</g>
<g>
</g>
<g>
</g>
<g>
</g>
<g>
</g>
<g>
</g>
<g>
</g>
<g>
</g>
<g>
</g>
</svg>
